<svg xmlns="http://www.w3.org/2000/svg" width="106" height="34" viewBox="0 0 106 34">
    <g fill="none" fill-rule="nonzero">
        <path fill="#1756C2" d="M19.974 0c-1.4 0-2.215 1.164-2.215 2.83v12.753c0 1.63.816 2.81 2.215 2.81 1.373 0 2.225-1.18 2.225-2.81V2.83c0-1.666-.852-2.83-2.225-2.83M31.27 5.052h-1.078v-.7c0-.784.438-1.115 1.596-.978 1.233.12 1.51-.699 1.51-1.353 0-.506-.141-.763-.516-1.217-.798-.827-2.82-.802-2.82-.802s-1.832-.088-3.075.942c-1.237 1.002-1.13 2.828-1.13 2.828v1.28h-.198c-.822 0-1.695.534-1.695 1.63 0 1.106.99 1.612 1.786 1.612h.108v7.61c0 1.309.768 2.49 2.284 2.49 1.547 0 2.15-1.144 2.15-2.416V8.294h1.077c.596 0 1.78-.303 1.78-1.547 0-1.291-.934-1.695-1.78-1.695M44.273 4.459a2.17 2.17 0 0 0-1.772.877 4.882 4.882 0 0 0-2.827-.877c-4.803 0-6.93 3.668-6.93 7.21 0 3.791 2.584 6.724 6.93 6.724 1.029 0 2.02-.348 2.821-.883.391.542 1.005.883 1.778.883 1.493 0 2.345-1.17 2.345-2.82V7.289c0-1.622-.852-2.83-2.345-2.83zm-6.865 7.026c0-3.016 1.44-3.551 2.408-3.551h.121c1.113.088 1.989.841 1.989 3.682 0 2.795-.95 3.355-1.934 3.411h-.149c-1.105 0-2.436-.535-2.436-3.542zM15.83 14.295c-.244-.73-4.208-11.954-4.405-12.483-.218-.532-.419-.918-.898-1.25C9.735-.035 8.04 0 8.04 0S6.367-.038 5.56.562c-.471.332-.672.718-.88 1.25-.2.53-4.164 11.754-4.437 12.483-.222.712-.414 1.585 0 2.296.455.667 1.205 1.245 2.174 1.245.983 0 1.855-.424 2.236-1.613.37-1.216.564-1.81.564-1.81H10.877l.558 1.81c.373 1.19 1.267 1.613 2.223 1.613a2.531 2.531 0 0 0 2.172-1.245c.43-.711.264-1.584 0-2.296zm-9.546-3.748L8.04 4.854l1.76 5.693H6.285z"/>
        <path fill="#EFCF00" d="M99.898 31.909H0V34h99.898c3.066 0 5.633-2.185 6.102-5.016-1.374 1.78-3.61 2.925-6.102 2.925"/>
        <path fill="#D60F27" d="M106 23.996v-1.7H6.192C2.785 22.295 0 25.038 0 28.397v1.7h99.826c3.414 0 6.174-2.748 6.174-6.102M67.424 4.469c-2.542 0-5.013 3.42-5.89 4.742.04-.301.104-.76.245-1.286.185-.871.345-2.105-.245-2.832-.345-.42-.855-.624-1.539-.624-2.353 0-4.679 3.017-5.673 4.493.118-.432.258-.972.353-1.284.154-.726.457-1.858-.03-2.517-.29-.407-.768-.59-1.446-.59-1.107 0-2.339.522-2.39.522l-.252.114.23.136s.34.34.078 2.142c-.447 3.168-1.476 6.945-1.877 8.443-.231.764-.196 1.388.108 1.802.32.422.904.663 1.631.663 1.015 0 1.937-.34 1.989-.389l.15-.04-.12-.153c0-.01-.529-.8.17-2.336 2.352-5.258 4.254-7.352 4.786-7.71.125-.058.198-.128.289-.128.058 0 .088.039.088.068.058.03.068.159.058.277-.192 1.828-.96 4.88-1.455 6.92-.106.467-.22.847-.28 1.166-.181.781-.12 1.388.174 1.791.294.334.77.526 1.442.526 1.055 0 1.988-.389 2.026-.396l.192-.078-.143-.13c0-.05-.51-.716.205-2.342 1.739-4.045 4.088-7.205 4.699-7.665.206-.146.311-.164.374-.164.02 0 .029 0 .068.058.048.05.068.222.048.432-.01.078-.077.33-.132.704-.349 1.4-.967 4.294-1.306 6.308-.202 1.202-.104 2.103.339 2.616.36.414.922.656 1.606.656 1.194 0 2.297-.748 2.346-.775l.174-.12-.16-.108s-.845-.8-.43-3.16c.294-1.583.674-3.402.96-4.725.137-.664.224-1.214.297-1.516l.02-.118c.153-.726.383-2.052-.242-2.803-.33-.435-.83-.6-1.525-.6M81.905 4.6c-.708 0-1.285.193-1.68.583a5.042 5.042 0 0 0-2.565-.724c-.738 0-1.822.14-3.038.927-1.351.853-2.49 2.217-3.42 4.084-2.101 4.178-1.094 7.23-.566 7.98.46.65 1.098.943 2.017.943 1.3 0 3.028-.52 5.665-4.745-.077.595-.164 1.431-.164 2.144 0 2.301 1.59 2.549 2.246 2.549 1.698 0 2.29-.808 2.294-.835l.067-.088-.067-.088c-.019-.029-.79-.833-.283-5.113.49-4.077 1.878-6.888 1.878-6.922l.067-.113-.118-.078c-.047-.02-1.193-.504-2.33-.504h-.003zM74.57 15.26c-.346 0-.53-.604-.53-1.237 0-.686.335-4.634 1.974-6.658.363-.394.796-.643 1.227-.643 1.05 0 2.031 1.146 2.274 1.44-1.272 2.637-3.06 5.368-4.33 6.706-.234.267-.46.392-.615.392zM94.856 4.459c-1.833 0-4.033 3.109-4.964 4.55.154-.623.38-1.542.554-2.389.12-.634.038-1.13-.202-1.462-.315-.364-.834-.558-1.56-.558-1.04 0-2.297.466-2.342.484l-.182.078.161.14c0 .02.34.513.13 2.242-.29 1.885-1.46 6.583-1.954 8.485-.227.764-.171 1.322.103 1.718.417.58 1.229.646 1.787.646.95 0 1.896-.34 1.937-.39l.182-.038-.11-.154c-.006-.01-.452-.738.067-2.145 1.4-3.621 2.956-5.736 3.89-6.463.216-.154.435-.25.651-.25.513 0 .839.591.839.591l.076.148.114-.12c.489-.498 1.361-1.555 1.68-2.51.219-.57.504-1.588.076-2.178-.178-.295-.496-.425-.934-.425M105.82 6.414c-.516.178-1.785.294-3.487.294h-.457c.077-.438.385-1.676.719-2.85.21-.707.186-1.289-.115-1.665-.295-.36-.78-.52-1.516-.52-1.032 0-2.518.458-2.576.485l-.22.067.19.171c.57.58-.048 3.377-.314 4.416-.029.058-1.479 5.604-1.479 8.255 0 2.224 1.225 3.326 3.57 3.326 1.094 0 2.69-.294 3.762-1.218.468-.403.675-.978.55-1.587-.066-.437-.284-.78-.284-.797l-.077-.162-.137.127c-.02 0-.502.473-1.466.797-.364.106-.65.179-.945.179-.31 0-.571-.127-.816-.332-.543-.555-.193-2.535-.076-3.172.182-1.006.628-2.877.725-3.346.169 0 .523-.007.977-.007.39 0 .722.007 1.048.007 2.019.038 2.584-1.522 2.604-2.346v-.207l-.18.085z"/>
    </g>
</svg>
