<svg width="33" height="30" viewBox="0 0 33 30" fill="none" xmlns="http://www.w3.org/2000/svg">
<path fill-rule="evenodd" clip-rule="evenodd" d="M10.5611 1.89173C10.2886 0.957915 11.1 0.0350378 12.0087 0.0029063C13.2401 -0.079742 13.58 1.62162 12.3203 2.39318C11.5907 2.72858 10.8237 2.6575 10.5611 1.89173ZM14.0443 4.75195C14.2275 3.78548 14.3544 3.63468 14.6205 3.45953C14.9489 3.24343 17.3747 3.01817 18.2122 3.12607C18.3291 3.14285 18.4405 3.16405 18.5465 3.18936C20.9678 3.76715 20.6282 6.49291 20.4656 7.79852L20.4592 7.84986C20.291 9.07646 20.126 10.1937 20.0924 10.3326C20.0339 10.5743 19.9817 10.585 18.8704 10.585C18.4971 10.585 18.3021 10.5721 18.0897 10.5521C17.7465 10.5296 17.7147 10.4522 17.7489 10.2013C17.8173 9.64069 17.8988 9.12228 17.9791 8.61097C18.0457 8.18762 18.1114 7.76913 18.1684 7.33558C18.3376 6.02919 18.2925 4.7394 16.6789 5.01673C16.4024 5.08724 16.3268 5.10946 16.2886 5.38656C16.1601 6.21019 16.0416 7.05121 15.9247 7.88008L15.9247 7.88016C15.8585 8.34982 15.7928 8.81558 15.7262 9.27206C15.6857 9.57327 15.6292 9.88817 15.5713 10.1672C15.5651 10.1968 15.56 10.2251 15.5553 10.2515L15.5553 10.2515C15.5487 10.2884 15.5428 10.3214 15.5353 10.3488C15.5189 10.4045 15.4807 10.4625 15.4441 10.4051C15.1849 9.93078 13.9649 10.0099 13.4559 10.3579C13.4279 10.3775 13.4023 10.3961 13.3791 10.4129C13.1908 10.5496 13.1593 10.5725 13.2522 10.0885C13.2705 9.97322 13.2884 9.85804 13.3058 9.74309C13.3972 9.14057 13.4778 8.54163 13.5585 7.9426L13.5585 7.94255L13.5585 7.94249L13.5585 7.94243L13.5585 7.94237L13.5585 7.94231L13.5585 7.94225L13.5585 7.94219L13.5585 7.94213L13.5585 7.94207L13.5585 7.94201L13.5586 7.94184V7.94183C13.7008 6.88549 13.843 5.82888 14.0443 4.75195ZM10.0674 4.84428C9.80894 6.65346 9.57448 8.29478 9.33094 10.347C9.33864 10.5256 9.38881 10.5508 9.60963 10.59C9.86998 10.5972 10.3024 10.5928 10.6822 10.5889C10.8529 10.5871 11.0129 10.5855 11.142 10.585L11.172 10.5851C11.5045 10.5854 11.5892 10.5854 11.6589 10.2203C11.7393 9.75534 11.8189 9.30228 11.8973 8.85647C12.193 7.17378 12.4705 5.59445 12.7043 3.86836C12.7735 3.41955 12.598 3.32974 11.9302 3.32745C11.6588 3.31839 11.373 3.31944 11.087 3.3205C11.0097 3.32078 10.9324 3.32107 10.8554 3.32115C10.5371 3.32144 10.2647 3.35374 10.24 3.6321C10.1811 4.04811 10.1237 4.45018 10.0674 4.84428ZM21.4771 10.6131C21.453 10.5668 21.5197 9.92294 21.6253 9.18225C21.7308 8.44151 21.9514 6.85074 22.1153 5.64716C22.5806 2.23017 22.7336 1.20059 22.7984 0.806823C22.8632 0.371222 22.8669 0.371234 23.2488 0.372426L23.3155 0.372561H24.0264C24.1109 0.372561 24.1897 0.372227 24.2631 0.371916C24.4311 0.371203 24.5713 0.370609 24.6876 0.374394L24.7789 0.377115C24.9912 0.383108 25.1073 0.386385 25.1606 0.445884C25.2249 0.517642 25.198 0.671174 25.1387 1.00987L25.1387 1.01004C25.1224 1.10308 25.1036 1.21008 25.0836 1.33318C25.0498 1.54172 24.9722 2.14422 24.8779 2.87671L24.8778 2.87726L24.8778 2.87737L24.8777 2.87821L24.8775 2.87932C24.8021 3.46477 24.7161 4.13299 24.6331 4.74937C24.1624 8.2466 23.8537 10.3911 23.797 10.557C23.7439 10.7125 21.5565 10.7654 21.4771 10.6131ZM1.98716 8.91541C2.04874 9.59824 2.38678 10.0512 3.1018 10.4091C3.68335 10.7003 3.696 10.7014 6.08492 10.6714L7.94782 10.6453C8.01285 10.6413 8.07311 10.6416 8.12836 10.6419C8.34253 10.6431 8.48151 10.6438 8.53205 10.3919C8.58462 10.1031 8.62379 9.83244 8.66488 9.54843L8.66488 9.5484L8.66489 9.54835L8.66489 9.54833L8.6649 9.54832L8.6649 9.54831L8.6649 9.54827C8.69604 9.33308 8.72829 9.11022 8.76832 8.86598C8.80583 8.52364 8.72727 8.43 8.34778 8.45125L6.75422 8.42731C4.97268 8.4005 4.7038 8.37261 4.59798 8.20393C4.50744 8.0596 4.60368 7.12286 4.98191 4.46809L5.07121 3.84242C5.2416 2.64969 5.37264 1.73246 5.41933 1.27339C5.42171 1.24979 5.42442 1.22658 5.42706 1.2039C5.45133 0.995643 5.47041 0.832032 5.18449 0.8279C5.0137 0.818118 4.76878 0.819231 4.48977 0.820499C4.38978 0.820954 4.28542 0.821428 4.17852 0.821428H3.40717C3.01514 0.821428 2.98395 0.844968 2.91177 1.25569C2.61666 3.00494 1.95021 8.50617 1.98716 8.91541ZM26.8818 11.2304C26.709 10.8446 26.1547 9.62751 25.6499 8.52582C25.1451 7.42407 24.7588 6.4528 24.7914 6.36746C24.8241 6.28206 25.3866 5.58003 26.0416 4.80745L27.1077 3.54974L27.1185 3.53655C27.1857 3.45475 27.2624 3.3614 27.3541 3.3601C27.6401 3.36155 27.9308 3.37 28.2193 3.37838C28.579 3.38883 28.9354 3.39918 29.2755 3.39578L29.3713 3.39468C29.7626 3.38955 29.9375 3.38726 29.6233 3.70759C29.4064 3.97736 28.9789 4.47118 28.4899 5.01307C27.7834 5.79613 27.2053 6.45778 27.2053 6.48344C27.2053 6.5091 27.7351 7.67854 28.3827 9.08225C28.8915 10.1851 29.3118 11.1716 29.4535 11.5836C29.5139 11.7234 29.4608 11.8433 29.3315 11.8759C29.1601 11.9159 28.8516 11.9318 28.3212 11.9318H27.5266C27.3325 11.9521 27.1897 11.9179 27.115 11.7511L26.8818 11.2304ZM13.7458 11.2481C13.1681 11.4792 12.7067 12.0281 12.7067 12.7484C12.7196 13.6433 13.8754 13.9665 14.6667 13.4197C15.2841 12.9445 15.6311 12.0323 15.1025 11.415C14.8046 11.0731 14.245 11.0724 13.7458 11.2481ZM24.1164 18.8056C24.1538 18.5123 24.2356 17.717 24.2982 17.038C24.3608 16.3591 24.4611 15.2985 24.521 14.6813C24.5665 14.2129 24.6065 13.7581 24.6238 13.5189C24.6588 13.3045 24.917 13.2792 25.0866 13.2776C25.2746 13.2796 25.459 13.2772 25.6401 13.2748H25.6402C26.0035 13.2701 26.3536 13.2656 26.6929 13.297C26.9334 13.3217 27.0338 13.375 27.0347 13.5186C26.8054 14.7004 25.9814 18.7774 25.918 19.03C25.8633 19.2476 25.8411 19.3118 25.5103 19.3308C25.2915 19.3272 25.0923 19.3317 24.8905 19.3364H24.8905H24.8905H24.8905H24.8904H24.8904H24.8904H24.8904H24.8904H24.8903H24.8903H24.8903H24.8903H24.8902H24.8902C24.7185 19.3403 24.545 19.3443 24.356 19.3433C24.1202 19.3404 24.0571 19.2708 24.1164 18.8056ZM7.07464 14.708C7.13946 15.0392 7.41564 17.281 7.45658 17.7156C7.45128 17.7788 7.44307 17.808 7.36023 17.8143C7.24999 17.8186 7.04421 17.8238 6.81838 17.8295L6.81714 17.8295L6.81598 17.8296L6.81501 17.8296H6.81495C6.44546 17.8389 6.02341 17.8496 5.87847 17.8595C5.80983 17.8655 5.76267 17.8388 5.78166 17.7659C5.93879 17.2375 6.86146 14.9622 7.03205 14.705L7.03366 14.703C7.05001 14.6833 7.05813 14.6735 7.07464 14.708ZM1.84229 21.1279C2.51495 19.4773 5.21647 13.567 5.8649 12.3429C5.98743 12.0377 6.31024 11.9776 6.53112 11.9562C7.10773 11.9296 7.61344 11.9337 8.11903 11.9377H8.11908L8.27383 11.9389C8.82389 11.9437 8.85541 12.1294 8.92199 12.5216L8.93127 12.5759C9.02169 13.0037 10.1433 19.7316 10.3972 21.3466C10.4015 21.382 10.4064 21.4142 10.4108 21.4434C10.4398 21.6354 10.4493 21.6983 10.1476 21.6988C9.97056 21.6993 9.70194 21.7081 9.41347 21.7176L9.41332 21.7176C8.91721 21.7339 8.36244 21.7521 8.11385 21.7333C7.98819 21.7169 7.90626 21.6341 7.8867 21.5409C7.85078 21.3677 7.81019 21.0704 7.78265 20.7603L7.71104 19.9559H6.26754H4.82404L4.50846 20.7294C4.3962 21.0046 4.27351 21.276 4.18211 21.4561C4.11808 21.6212 4.02264 21.6974 3.87982 21.7286C3.77159 21.7277 3.57901 21.7314 3.35037 21.7359H3.35036H3.35033H3.3503H3.35024C2.83248 21.7459 2.12988 21.7595 1.80334 21.7307C1.60545 21.6392 1.72783 21.3765 1.80663 21.2073L1.80664 21.2073C1.82055 21.1775 1.8331 21.1505 1.84229 21.1279ZM20.2468 17.5056C20.1284 18.2126 20.0171 18.8766 19.826 19.5908C19.7401 19.8508 19.4805 19.8701 19.2083 19.8903H19.2083H19.2083C19.1692 19.8932 19.1299 19.8961 19.0908 19.8997C18.1048 19.8997 17.7467 19.1344 18.0897 17.7606C18.3398 16.7591 18.8116 16.3086 19.6105 16.3086L19.6117 16.3086C19.767 16.3094 20.3672 16.3128 20.3906 16.6708C20.3384 16.9588 20.292 17.2354 20.2468 17.5056ZM17.6795 21.9233C15.2189 21.5011 15.2352 18.5539 15.7865 16.8697C16.4768 14.9202 18.1589 14.3538 19.5415 14.3044C20.7082 14.2643 22.3257 14.4823 22.7317 14.7343C22.8439 14.8039 22.7911 15.4797 22.4779 17.985C22.2605 19.7246 22.0226 21.2204 21.9493 21.309C21.5598 21.7806 18.9494 22.1561 17.6795 21.9233ZM24.0859 20.5184C23.208 21.0562 23.1685 22.367 24.0054 22.7063C25.3582 23.2547 26.8117 21.6318 25.8234 20.6389C25.4222 20.2359 24.6415 20.1781 24.0859 20.5184ZM9.58289 23.2639C9.50253 23.0408 9.78886 22.9261 9.97239 22.8526C9.99746 22.8426 10.0206 22.8333 10.0407 22.8247C10.7895 22.5022 11.3165 21.9765 11.4928 21.3761C11.5771 21.0888 11.8342 19.4648 12.0639 17.7675C12.2937 16.0701 12.5 14.7572 12.5226 14.6801L12.5252 14.6709C12.5441 14.6041 12.5961 14.4194 12.8269 14.3987C13.2133 14.395 13.5375 14.3967 13.8809 14.3985H13.8811C14.0876 14.3996 14.301 14.4007 14.5391 14.4007C14.8671 14.369 14.8275 14.7048 14.7986 14.9501L14.793 14.9985C14.7704 15.2533 14.7105 15.7021 14.6362 16.2586L14.5847 16.6452L14.191 19.6178C13.9707 21.2807 13.8486 21.7927 13.4677 22.6493C13.0145 23.6685 12.3217 24.2607 11.0658 24.6821L11.013 24.6989C10.7237 24.7912 10.0798 24.9967 10.0056 24.7896C9.86538 24.338 9.7599 23.9368 9.6436 23.4944L9.64359 23.4944L9.58289 23.2639ZM0.000768071 28.7862C-0.0219808 28.8091 0.463442 29.0916 1.07943 29.4139C1.69547 29.7362 2.32064 30 2.46865 30C2.61672 30 3.55518 29.7961 4.55419 29.5469C9.44582 28.3264 16.2077 27.1968 22.2898 26.584C25.5032 26.2604 29.6043 25.9721 31.3927 25.9442L32.4 25.9285L31.5063 25.8258C30.1432 25.6694 22.2838 25.6746 20.1113 25.8336C14.8362 26.2194 9.54018 26.876 5.0858 27.6962C3.02728 28.0752 0.0795054 28.7072 0.000768071 28.7862Z" fill="#EA232A"/>
</svg>
