<svg xmlns="http://www.w3.org/2000/svg" width="3499" height="1430" viewBox="0 0 3499 1430" version="1.1">
  <path d="M 608.500 375.601 C 585.679 377.967, 571.574 380.828, 554.108 386.635 C 494.773 406.361, 452.345 449.484, 439.563 503.054 C 429.751 544.179, 437.606 585.373, 461.739 619.358 C 468.860 629.387, 487.790 648.598, 498.540 656.706 C 511.930 666.805, 526.367 675.841, 537.523 681.103 C 560.253 691.825, 611.306 711.690, 649.325 724.606 C 674.905 733.296, 686.277 737.960, 702 746.208 C 744.821 768.673, 770.914 797.401, 778.629 830.575 C 781.376 842.391, 780.983 860.522, 777.706 873.070 C 771.667 896.192, 756.770 916.388, 735.084 930.854 C 719.219 941.436, 705.960 947.221, 685.450 952.510 C 650.745 961.460, 618.378 961.750, 581.346 953.444 C 540.893 944.371, 504.158 926.957, 466.247 898.880 C 453.780 889.647, 450.997 888, 447.856 888 C 444.790 888, 443.586 888.669, 440.828 891.901 C 436.154 897.381, 414.288 930.044, 413.537 932.668 C 412.652 935.764, 416.894 940.213, 430.815 950.791 C 460.714 973.509, 481.469 985.208, 514 997.679 C 567.805 1018.305, 633.755 1025.935, 684.500 1017.405 C 752.386 1005.993, 801.753 972.435, 827.058 920.500 C 844.216 885.285, 849.114 842.292, 840.039 806.549 C 833.302 780.010, 820.845 759.626, 797.805 737.434 C 778.794 719.123, 756.848 704.538, 723.500 688.050 C 694.589 673.756, 663.527 661.422, 624 648.539 C 561.718 628.241, 520.901 599.532, 506.975 566.230 C 492.536 531.701, 505.017 489.130, 536.954 463.974 C 571.525 436.744, 613.686 428.533, 669.995 438.065 C 707.314 444.383, 742.700 457.983, 773.912 478.004 C 784.087 484.531, 786.815 485.072, 790.784 481.350 C 793.552 478.754, 810.410 452.969, 814.354 445.300 C 817.091 439.977, 816.495 437.126, 811.693 432.579 C 806.425 427.591, 795.278 420.930, 775.500 410.952 C 742.235 394.170, 703.024 382.418, 663.913 377.508 C 651.804 375.988, 616.490 374.772, 608.500 375.601" stroke="none" fill="#fcfbfb" fill-rule="evenodd" />
  <path d="M 539.201 38.503 C 301.436 59.560, 104.786 77.086, 102.201 77.451 C 92.826 78.775, 78.418 83.148, 69.472 87.386 C 39.112 101.768, 16.674 126.980, 6.073 158.623 C -0.454 178.104, 0.008 143.494, 0.008 613 C 0.008 1082.052, -0.443 1047.930, 6.005 1067.175 C 19.731 1108.144, 51.738 1136.812, 95.500 1147.336 L 104.500 1149.500 629 1149.500 L 1153.500 1149.500 1162.500 1147.336 C 1206.294 1136.804, 1238.258 1108.177, 1251.992 1067.184 C 1258.406 1048.037, 1257.992 1073.784, 1257.992 694.500 C 1257.992 315.216, 1258.406 340.963, 1251.992 321.816 C 1245.851 303.486, 1236.372 288.229, 1222.567 274.451 C 1205.696 257.613, 1187.307 247.622, 1161.500 241.272 C 1154.939 239.658, 1123.668 239.517, 663 239.025 C 210.218 238.541, 171.179 238.371, 167.429 236.857 C 147.456 228.799, 135.211 214.578, 131.941 195.643 C 129.561 181.859, 133.042 173.014, 143.456 166.382 C 146.336 164.549, 157.649 164.487, 581.456 164 L 1016.500 163.500 1020.568 161.322 C 1025.797 158.523, 1031.384 152.323, 1033.129 147.381 C 1034.220 144.292, 1034.500 133.294, 1034.500 93.500 L 1034.500 43.500 1031.845 36.236 C 1028.378 26.749, 1024.088 20.195, 1017.259 13.954 C 1006.943 4.526, 994.569 -0.077, 980.040 0.110 C 975.343 0.170, 776.965 17.447, 539.201 38.503 M 1585 242.668 C 1576.087 245.782, 1569.548 252.032, 1565.296 261.500 C 1563.577 265.329, 1563.500 283.889, 1563.500 695 L 1563.500 1124.500 1566.270 1130.142 C 1569.503 1136.724, 1576.202 1143.279, 1582.824 1146.339 C 1587.213 1148.367, 1589.266 1148.520, 1616.258 1148.819 C 1640.554 1149.088, 1645.886 1148.884, 1650.627 1147.506 C 1661.022 1144.484, 1667.111 1139.189, 1671.910 1129 L 1674.500 1123.500 1674.769 973.750 L 1675.038 824 1782.769 823.999 C 1907.416 823.998, 1913.597 823.678, 1946.899 815.483 C 2063.050 786.903, 2150.949 691.121, 2168.509 574 C 2172.086 550.142, 2172.087 514.795, 2168.512 491 C 2149.747 366.103, 2051.403 266.419, 1925.897 245.078 C 1902.866 241.162, 1895.647 241.006, 1740.500 241.051 C 1605.839 241.091, 1589.013 241.266, 1585 242.668 M 1675 530.032 L 1675 708.065 1789.250 707.743 L 1903.500 707.421 1915.612 704.731 C 1932.134 701.062, 1942.989 697.162, 1959.500 688.965 C 1978.019 679.770, 1989.758 671.236, 2005.530 655.500 C 2033.348 627.747, 2048.940 597.412, 2056.160 557 C 2058.195 545.608, 2057.875 513.018, 2055.605 500.500 C 2041.052 420.251, 1976.301 360.707, 1895.228 353.019 C 1888.743 352.404, 1843.071 352.001, 1779.750 352.001 L 1675 352 1675 530.032 M 608.500 375.601 C 585.679 377.967, 571.574 380.828, 554.108 386.635 C 494.773 406.361, 452.345 449.484, 439.563 503.054 C 429.751 544.179, 437.606 585.373, 461.739 619.358 C 468.860 629.387, 487.790 648.598, 498.540 656.706 C 511.930 666.805, 526.367 675.841, 537.523 681.103 C 560.253 691.825, 611.306 711.690, 649.325 724.606 C 674.905 733.296, 686.277 737.960, 702 746.208 C 744.821 768.673, 770.914 797.401, 778.629 830.575 C 781.376 842.391, 780.983 860.522, 777.706 873.070 C 771.667 896.192, 756.770 916.388, 735.084 930.854 C 719.219 941.436, 705.960 947.221, 685.450 952.510 C 650.745 961.460, 618.378 961.750, 581.346 953.444 C 540.893 944.371, 504.158 926.957, 466.247 898.880 C 453.780 889.647, 450.997 888, 447.856 888 C 444.790 888, 443.586 888.669, 440.828 891.901 C 436.154 897.381, 414.288 930.044, 413.537 932.668 C 412.652 935.764, 416.894 940.213, 430.815 950.791 C 460.714 973.509, 481.469 985.208, 514 997.679 C 567.805 1018.305, 633.755 1025.935, 684.500 1017.405 C 752.386 1005.993, 801.753 972.435, 827.058 920.500 C 844.216 885.285, 849.114 842.292, 840.039 806.549 C 833.302 780.010, 820.845 759.626, 797.805 737.434 C 778.794 719.123, 756.848 704.538, 723.500 688.050 C 694.589 673.756, 663.527 661.422, 624 648.539 C 561.718 628.241, 520.901 599.532, 506.975 566.230 C 492.536 531.701, 505.017 489.130, 536.954 463.974 C 571.525 436.744, 613.686 428.533, 669.995 438.065 C 707.314 444.383, 742.700 457.983, 773.912 478.004 C 784.087 484.531, 786.815 485.072, 790.784 481.350 C 793.552 478.754, 810.410 452.969, 814.354 445.300 C 817.091 439.977, 816.495 437.126, 811.693 432.579 C 806.425 427.591, 795.278 420.930, 775.500 410.952 C 742.235 394.170, 703.024 382.418, 663.913 377.508 C 651.804 375.988, 616.490 374.772, 608.500 375.601 M 2861.457 580.858 C 2852.878 586.104, 2849.001 596.280, 2852.444 604.519 C 2853.238 606.419, 2911.797 702.762, 2982.576 818.615 C 3053.355 934.467, 3111.318 1029.773, 3111.382 1030.406 C 3111.447 1031.038, 3062.730 1115.373, 3003.123 1217.815 C 2915.614 1368.209, 2894.652 1404.910, 2894.256 1408.418 C 2893.345 1416.501, 2897.610 1424.230, 2905.086 1428.044 C 2908.743 1429.910, 2911.274 1430, 2959.843 1430 L 3010.765 1430 3254.632 1017.750 L 3498.500 605.500 3498.500 597.843 C 3498.500 590.811, 3498.253 589.880, 3495.475 586.448 C 3489.152 578.635, 3491.840 578.951, 3434.043 579.241 L 3382.586 579.500 3283.043 746.736 C 3228.294 838.716, 3183.271 913.979, 3182.992 913.986 C 3182.713 913.994, 3136.072 838.737, 3079.345 746.750 L 2976.206 579.500 2920.353 579.249 C 2867.408 579.011, 2864.342 579.095, 2861.457 580.858 M 2420.155 584.501 C 2354.141 592.059, 2295.370 619.538, 2249.121 664.473 C 2233.104 680.034, 2222.253 693.007, 2210.097 711.129 C 2163.276 780.926, 2151.766 868.756, 2178.824 949.765 C 2192.424 990.484, 2213.719 1025.346, 2243.939 1056.368 C 2289.741 1103.386, 2344.328 1131.268, 2411 1141.701 C 2427.499 1144.282, 2476.443 1144.257, 2493 1141.658 C 2551.598 1132.460, 2598.829 1111.047, 2644 1073.198 L 2653.500 1065.238 2654 1092.869 C 2654.462 1118.384, 2654.664 1120.854, 2656.637 1125.122 C 2659.747 1131.847, 2665.319 1137.504, 2672.243 1140.964 L 2678.319 1144 2715.160 1144 L 2752 1144 2752 863.500 L 2752 583 2716.682 583 C 2677.017 583, 2675.055 583.265, 2666.500 589.772 C 2662.878 592.527, 2660.535 595.466, 2658 600.432 L 2654.500 607.289 2654 634.646 L 2653.500 662.002 2642.500 652.910 C 2596.950 615.259, 2551.465 594.790, 2493.500 585.855 C 2476.198 583.188, 2437.813 582.480, 2420.155 584.501 M 2431 690.105 C 2384.626 695.336, 2341.228 718.032, 2312.264 752.203 C 2268.253 804.123, 2258.927 873.853, 2287.882 934.500 C 2313.303 987.744, 2362.924 1025.695, 2420.822 1036.172 C 2437.313 1039.156, 2464.687 1039.156, 2481.178 1036.172 C 2539.076 1025.695, 2588.697 987.744, 2614.118 934.500 C 2639.881 880.539, 2635.435 818.303, 2602.279 768.758 C 2565.319 713.528, 2497.885 682.562, 2431 690.105" stroke="none" fill="#ec4c2c" fill-rule="evenodd" />
</svg>